<?xml version="1.0" standalone="no"?>
<!DOCTYPE svg PUBLIC "-//W3C//DTD SVG 20010904//EN"
 "http://www.w3.org/TR/2001/REC-SVG-20010904/DTD/svg10.dtd">
<svg version="1.0" xmlns="http://www.w3.org/2000/svg"
 width="1024.000000pt" height="1024.000000pt" viewBox="0 0 1024.000000 1024.000000"
 preserveAspectRatio="xMidYMid meet">
<metadata>
Created by potrace 1.11, written by Peter Selinger 2001-2013
</metadata>
<g transform="translate(0.000000,1024.000000) scale(0.100000,-0.100000)"
fill="#000000" stroke="none">
<path d="M1190 10229 c-454 -44 -847 -316 -1050 -729 -53 -106 -95 -232 -117
-350 -17 -90 -18 -293 -18 -4020 0 -3213 2 -3940 13 -4009 88 -556 504 -983
1068 -1098 85 -17 270 -18 4034 -18 3764 0 3949 1 4034 18 382 78 699 297 893
617 86 143 148 314 175 481 19 125 19 7873 0 7998 -76 477 -399 869 -857 1042
-81 30 -213 58 -330 69 -133 12 -7715 12 -7845 -1z m3036 -1502 c199 -67 354
-222 422 -421 l27 -81 0 -1065 0 -1065 -28 -80 c-73 -205 -222 -355 -420 -422
l-82 -28 -1065 0 -1065 0 -82 28 c-198 67 -347 217 -420 422 l-28 80 0 1065 0
1065 27 81 c76 224 256 386 488 440 43 9 288 12 1100 11 l1045 -2 81 -28z
m4070 0 c199 -67 354 -222 422 -421 l27 -81 0 -1065 0 -1065 -28 -80 c-73
-205 -222 -355 -420 -422 l-82 -28 -1065 0 -1065 0 -82 28 c-198 67 -347 217
-420 422 l-28 80 0 1065 0 1065 27 81 c76 224 256 386 488 440 43 9 288 12
1100 11 l1045 -2 81 -28z m-4070 -4070 c199 -67 354 -222 422 -421 l27 -81 0
-1065 0 -1065 -28 -80 c-73 -205 -222 -355 -420 -422 l-82 -28 -1065 0 -1065
0 -82 28 c-198 67 -347 217 -420 422 l-28 80 0 1065 0 1065 27 81 c76 224 256
386 488 440 43 9 288 12 1100 11 l1045 -2 81 -28z m4070 0 c199 -67 354 -222
422 -421 l27 -81 0 -1065 0 -1065 -28 -80 c-73 -205 -222 -355 -420 -422 l-82
-28 -1065 0 -1065 0 -82 28 c-198 67 -347 217 -420 422 l-28 80 0 1065 0 1065
27 81 c76 224 256 386 488 440 43 9 288 12 1100 11 l1045 -2 81 -28z"/>
</g>
</svg>
